Coordinates
version=1
nRows=43
nColumns=12
inDegrees=yes

Units are S.I. units (second, meters, Newtons, ...)
Angles are in degrees

endheader
time	SC_y	SC_z	SC_x	AC_y	AC_z	AC_x	GH_y	GH_z	GH_yy	EL_x	PS_y
       0.0              -14.98          38.49          36.79          46.62         -14.21          11.13          -88.0          8.383         -114.2          118.0          16.72
   0.02772              -14.99          38.48          36.79          46.62         -14.21          11.13         -87.99           8.39         -114.2          117.9          16.73
   0.05544              -14.99          38.48          36.79          46.62         -14.21          11.13         -87.98          8.397         -114.2          117.9          16.75
   0.08316               -15.0          38.47          36.79          46.61         -14.21          11.12         -87.98          8.405         -114.2          117.9          16.76
    0.1109               -15.0          38.47          36.79          46.61         -14.21          11.12         -87.97          8.414         -114.2          117.9          16.78
    0.1386              -15.01          38.46          36.79          46.61         -14.21          11.12         -87.96          8.423         -114.2          117.9           16.8
    0.1663              -15.02          38.45          36.79          46.61          -14.2          11.11         -87.95          8.433         -114.2          117.9          16.82
     0.194              -15.03          38.45          36.78          46.61          -14.2          11.11         -87.94          8.443         -114.1          117.9          16.84
    0.2218              -15.03          38.44          36.78          46.61          -14.2           11.1         -87.92          8.454         -114.1          117.9          16.86
    0.2495              -15.04          38.43          36.78           46.6          -14.2           11.1         -87.91          8.466         -114.1          117.9          16.89
    0.2772              -15.05          38.42          36.78           46.6          -14.2          11.09          -87.9          8.479         -114.1          117.8          16.91
    0.3049              -15.06          38.41          36.78           46.6          -14.2          11.08         -87.88          8.493         -114.1          117.8          16.94
    0.3327              -15.07           38.4          36.78           46.6          -14.2          11.08         -87.87          8.508         -114.0          117.8          16.97
    0.3604              -15.09          38.39          36.78          46.59         -14.19          11.07         -87.85          8.524         -114.0          117.8           17.0
    0.3881               -15.1          38.38          36.78          46.59         -14.19          11.06         -87.83          8.541         -114.0          117.8          17.04
    0.4158              -15.11          38.37          36.78          46.59         -14.19          11.05         -87.81           8.56         -114.0          117.8          17.08
    0.4435              -15.13          38.35          36.78          46.58         -14.19          11.04         -87.79          8.581         -113.9          117.7          17.12
    0.4713              -15.15          38.34          36.78          46.58         -14.18          11.03         -87.77          8.603         -113.9          117.7          17.16
     0.499              -15.16          38.32          36.78          46.57         -14.18          11.02         -87.74          8.627         -113.9          117.7          17.21
    0.5267              -15.18           38.3          36.78          46.57         -14.18          11.01         -87.71          8.654         -113.8          117.7          17.27
    0.5544              -15.21          38.28          36.78          46.56         -14.17          10.99         -87.68          8.684         -113.8          117.6          17.33
    0.5821              -15.23          38.26          36.78          46.56         -14.17          10.98         -87.65          8.716         -113.7          117.6          17.39
    0.6099              -15.26          38.24          36.78          46.55         -14.17          10.96         -87.61          8.751         -113.7          117.5          17.46
    0.6376              -15.29          38.21          36.78          46.54         -14.16          10.94         -87.57          8.791         -113.6          117.5          17.54
    0.6653              -15.32          38.18          36.78          46.54         -14.16          10.92         -87.52          8.835         -113.5          117.4          17.63
     0.693              -15.36          38.15          36.78          46.53         -14.15           10.9         -87.47          8.884         -113.5          117.4          17.73
    0.7207               -15.4          38.11          36.78          46.52         -14.14          10.87         -87.41          8.939         -113.4          117.3          17.84
    0.7485              -15.44          38.07          36.77           46.5         -14.14          10.84         -87.35          9.001         -113.3          117.3          17.97
    0.7762              -15.49          38.02          36.77          46.49         -14.13          10.81         -87.27           9.07         -113.2          117.2          18.11
    0.8039              -15.55          37.96          36.77          46.48         -14.12          10.77         -87.19           9.15         -113.1          117.1          18.27
    0.8316              -15.62           37.9          36.77          46.46         -14.11          10.73         -87.09           9.24         -112.9          117.0          18.45
    0.8594               -15.7          37.83          36.77          46.44         -14.09          10.68         -86.98          9.344         -112.8          116.9          18.66
    0.8871              -15.79          37.75          36.77          46.42         -14.08          10.62         -86.86          9.464         -112.6          116.7           18.9
    0.9148              -15.89          37.65          36.76          46.39         -14.06          10.55         -86.71          9.603         -112.4          116.6          19.18
    0.9425              -16.01          37.54          36.76          46.36         -14.04          10.48         -86.54          9.766         -112.1          116.4          19.51
    0.9702              -16.16          37.41          36.76          46.33         -14.02          10.38         -86.34          9.958         -111.8          116.2           19.9
     0.998              -16.33          37.26          36.75          46.29         -13.99          10.28         -86.09          10.19         -111.5          115.9          20.36
     1.026              -16.53          37.07          36.75          46.24         -13.96          10.14         -85.81          10.46         -111.0          115.6          20.91
     1.053              -16.78          36.84          36.74          46.17         -13.92          9.987         -85.46          10.79         -110.5          115.2          21.58
     1.081              -17.08          36.57          36.73           46.1         -13.87          9.794         -85.03           11.2         -109.9          114.8          22.39
     1.109              -17.45          36.22          36.73          46.01         -13.81          9.556          -84.5          11.69         -109.1          114.2           23.4
     1.137              -17.92           35.8          36.71          45.89         -13.73           9.26         -83.85          12.32         -108.2          113.5          24.65
     1.164               -18.5          35.26           36.7          45.75         -13.63          8.886         -83.02           13.1         -107.0          112.6          26.24
